<svg version="1.1" id="Layer_1" xmlns="http://www.w3.org/2000/svg" xmlns:xlink="http://www.w3.org/1999/xlink" x="0px" y="0px"
	 width="100%" viewBox="0 0 656 1024" enable-background="new 0 0 656 1024" xml:space="preserve">
<path fill="#000000" opacity="1.000000" stroke="none" 
	d="
M442.434631,568.472168 
	C445.691254,583.268860 444.303894,597.780701 442.645325,612.127686 
	C441.553589,621.571655 439.740295,630.973633 437.150146,640.308716 
	C434.323639,650.495850 430.640533,660.158386 425.807648,669.367493 
	C421.958984,676.701233 417.122040,683.540405 412.449005,690.412292 
	C403.661469,703.334595 392.226624,713.714600 379.740448,722.884033 
	C371.743256,728.756958 363.631348,734.730286 354.819763,739.166687 
	C345.705933,743.755310 335.827301,746.823730 325.867279,749.587280 
	C309.364624,754.166199 292.501862,755.717285 275.695526,754.801147 
	C264.710236,754.202271 253.481018,753.254822 242.632889,750.750427 
	C236.163315,749.256836 230.365891,745.755981 224.280197,743.119507 
	C212.502716,738.017212 201.175995,731.991760 191.297897,723.857056 
	C184.556381,718.305237 178.027283,712.401550 171.714386,706.262024 
	C164.691620,699.432190 158.467667,691.980835 152.434464,684.414246 
	C148.494370,679.472778 146.449402,673.067993 143.097565,667.599426 
	C136.532867,656.889099 134.118301,644.646973 129.925613,633.070251 
	C127.436874,626.198303 126.701302,618.886414 126.321007,611.616089 
	C125.359192,593.228760 126.305923,574.894043 128.922852,556.690491 
	C130.168625,548.024780 132.963013,539.690491 136.156708,531.500793 
	C141.931931,516.691162 150.767853,503.747314 160.174622,491.113861 
	C162.146378,488.465729 163.459625,485.235535 165.735214,482.921478 
	C175.071884,473.426910 184.146942,463.742432 195.223862,455.996552 
	C215.265793,441.981598 237.286346,433.334045 261.237457,429.313965 
	C271.708313,427.556488 282.411713,427.017334 292.867859,428.148651 
	C298.523804,428.760590 304.922302,427.005157 310.072174,431.138000 
	C310.405029,431.405121 311.132446,431.540436 311.490448,431.362671 
	C317.484436,428.386505 321.993073,433.561737 327.288940,434.158295 
	C334.541718,434.975281 340.922028,438.229156 347.437531,440.964386 
	C354.639740,443.987915 362.363068,445.938934 368.261383,451.876617 
	C371.806274,455.445190 376.700928,457.606781 380.907867,460.542328 
	C392.204346,468.424744 401.024994,478.750397 410.606293,488.385925 
	C416.885406,494.700653 421.119232,502.384094 425.250031,509.835022 
	C428.557953,515.801636 431.354248,522.466431 433.082520,529.504578 
	C435.058075,537.549805 437.934418,545.431396 439.712738,553.575745 
	C440.760193,558.372925 441.458557,563.246460 442.434631,568.472168 
M434.003876,573.009216 
	C434.003876,573.009216 434.024658,573.045166 434.053009,572.246521 
	C435.022522,567.741516 434.156860,563.286011 433.223389,558.955933 
	C431.132660,549.257751 427.431854,540.053284 424.284637,530.668762 
	C419.756897,517.167480 412.476440,505.354706 404.224365,494.244354 
	C396.345642,483.636566 386.763428,474.346832 375.799377,466.611267 
	C363.813568,458.154877 351.137024,451.115112 337.334229,446.142548 
	C327.784546,442.702209 317.873016,440.827850 307.944366,438.794037 
	C299.113220,436.985016 290.177704,436.935028 281.438568,436.797363 
	C271.825134,436.645935 262.084290,438.518585 252.488831,440.978455 
	C234.510956,445.587189 218.183304,453.313324 203.081696,463.844116 
	C193.576767,470.472168 185.261581,478.445587 177.338730,486.907745 
	C171.896942,492.719910 166.486343,498.643158 162.335922,505.309937 
	C157.475403,513.117249 152.761368,521.068420 149.397217,529.834595 
	C144.548965,542.468018 140.405289,555.337097 138.335541,568.580872 
	C135.198471,588.654053 132.825043,608.939941 139.393524,628.979248 
	C141.042114,634.008789 141.663208,639.403198 143.569168,644.314453 
	C147.418930,654.234619 150.734711,664.426331 156.561890,673.483276 
	C157.615402,675.120667 157.836960,677.078552 159.255066,678.706848 
	C163.970306,684.120911 168.550766,689.681213 172.783340,695.477295 
	C176.009460,699.895081 179.240112,704.406128 183.463135,707.734192 
	C191.365036,713.961548 199.658340,719.721191 208.041061,725.296143 
	C211.604553,727.666077 216.325668,728.427124 219.613525,731.054565 
	C228.767868,738.370178 239.774231,741.177856 250.612961,743.477295 
	C263.455383,746.201843 276.691040,746.801331 289.931854,747.004822 
	C304.911285,747.234985 319.092468,743.645325 333.091614,739.412476 
	C350.200806,734.239441 365.887268,726.204163 379.448486,714.073608 
	C390.979797,703.758728 402.415863,693.779358 410.868744,680.353638 
	C419.699066,666.328369 426.024139,651.476868 430.727264,635.820435 
	C436.135864,617.815674 437.221466,599.249207 436.699341,580.559448 
	C436.621582,577.776306 436.807495,574.811951 434.003876,573.009216 
z"/>
<path fill="#000000" opacity="1.000000" stroke="none" 
	d="
M433.992371,572.992065 
	C433.719421,573.937683 433.176361,574.919189 433.239227,575.860229 
	C434.080048,588.445129 432.649719,600.980042 431.610809,613.440613 
	C430.778107,623.427490 428.914795,633.533447 424.794739,642.919250 
	C420.464661,652.783569 416.668243,662.863159 410.941895,672.121155 
	C407.423920,677.808838 403.600250,683.220764 399.152924,688.098938 
	C395.510742,692.094116 392.472473,696.542297 388.719940,700.476624 
	C381.804871,707.726624 374.004547,713.568787 365.632477,718.994934 
	C360.058350,722.607666 354.323761,725.732788 348.469208,728.791870 
	C333.102905,736.820740 316.816406,741.062378 299.575287,742.842712 
	C280.667297,744.795288 262.532623,742.412292 244.151062,737.904846 
	C229.289398,734.260498 216.577698,727.089294 204.040146,719.157593 
	C193.215759,712.309753 183.712250,703.596252 175.038269,694.353821 
	C165.305557,683.983337 158.366364,671.435364 152.141983,658.561584 
	C148.659515,651.358765 146.300293,643.791443 143.522980,636.354248 
	C141.598984,631.202026 140.740372,625.889709 140.092438,620.394775 
	C138.911423,610.378540 138.448151,600.316101 138.079666,590.293274 
	C137.814026,583.067627 139.493652,575.767273 140.341049,568.504395 
	C142.593124,549.202454 149.605972,531.437805 159.362900,514.942017 
	C167.287994,501.543243 177.039642,489.435303 188.704803,478.752991 
	C207.017105,461.983612 228.267944,450.533386 251.874557,444.367981 
	C268.420410,440.046692 285.665894,439.049805 303.119446,441.162659 
	C318.956207,443.079865 333.775055,448.030060 348.276825,453.735840 
	C356.330261,456.904541 363.904633,462.093628 370.671692,468.054657 
	C375.091431,471.947968 379.929901,475.363495 384.468048,479.173370 
	C397.067902,489.751129 406.597687,502.484833 414.318085,516.791504 
	C416.592102,521.005493 419.537109,524.774353 421.427185,529.288086 
	C425.367737,538.698486 426.717102,548.762146 429.661407,558.375427 
	C431.104767,563.088013 430.755371,568.278198 433.766602,572.816040 
	C434.024658,573.045166 434.003876,573.009216 433.992371,572.992065 
M170.279755,513.592407 
	C168.607834,515.640991 166.594986,517.370544 165.439743,519.881592 
	C156.631027,539.028381 149.414673,558.571167 147.215714,579.807373 
	C145.918182,592.338318 144.579819,604.944824 147.105316,617.202209 
	C149.428696,628.478699 151.527100,639.926636 155.997253,650.761719 
	C160.126968,660.771729 165.175980,670.233521 171.565704,678.855957 
	C176.715424,685.805115 182.817474,692.037231 188.770096,698.368408 
	C196.704269,706.807129 206.012482,712.876831 215.466385,718.683655 
	C226.300140,725.338013 238.155701,730.119629 250.809067,732.973572 
	C263.352539,735.802856 275.994232,737.538025 288.737457,737.662781 
	C306.945862,737.841187 324.163544,732.539490 340.797760,725.620178 
	C349.353027,722.061401 358.583862,718.785767 365.508270,712.990906 
	C373.933594,705.940186 382.206268,698.466187 389.997070,690.523376 
	C405.989410,674.218994 415.059937,654.179810 421.467957,633.000488 
	C425.664062,619.131714 427.586853,604.511353 427.563904,589.818909 
	C427.546753,578.844482 426.571136,567.805908 423.616241,557.403931 
	C419.563904,543.138550 414.878540,529.075928 407.131561,515.975281 
	C394.946106,495.368835 378.671753,479.110474 358.427185,467.108276 
	C340.621979,456.552307 321.008667,450.288635 300.223236,448.245178 
	C291.292480,447.367157 282.441498,447.110443 273.433136,448.053192 
	C265.763458,448.855774 258.527161,451.042877 251.082001,452.545807 
	C237.438278,455.300049 225.825470,462.158844 213.992477,468.832153 
	C205.209259,473.785553 198.029251,480.680603 190.874878,487.507355 
	C183.012848,495.009338 174.922073,502.525024 170.279755,513.592407 
z"/>
<path fill="#000000" opacity="1.000000" stroke="none" 
	d="
M196.926270,625.707153 
	C193.018036,614.227234 192.593460,602.637512 192.117447,591.115662 
	C191.781601,582.986267 193.495056,574.959473 195.568146,567.141907 
	C197.207474,560.960022 199.423141,554.913208 202.396774,549.160461 
	C208.626266,537.109009 216.244751,525.892944 226.840927,517.550110 
	C237.196838,509.396423 248.343307,501.886871 261.409943,498.424683 
	C275.781982,494.616669 290.597443,492.800201 305.106781,496.119446 
	C316.486023,498.722626 327.287476,503.574097 337.428223,509.927521 
	C353.132874,519.766907 363.674286,533.492126 371.544647,549.950256 
	C383.247711,574.423157 382.572784,599.502869 374.774628,624.444397 
	C370.536926,637.998169 362.849854,650.030334 352.655090,660.579590 
	C339.913544,673.764160 325.149231,682.821533 307.477417,687.066040 
	C289.213165,691.452759 271.308289,691.300781 253.261093,684.422607 
	C232.527756,676.520630 216.711487,663.305176 205.273026,644.697754 
	C201.746658,638.961182 200.434967,632.012878 196.926270,625.707153 
M219.047150,536.547119 
	C209.133286,549.014160 203.906570,563.760376 200.684128,578.902039 
	C198.475357,589.280579 198.838531,600.170898 200.613403,611.026917 
	C202.692871,623.746094 207.850174,634.914551 214.133347,645.826111 
	C216.852921,650.548950 221.545609,653.399963 224.923187,657.499451 
	C234.636795,669.289185 247.855057,676.134888 261.871765,680.350708 
	C282.394409,686.523254 302.814545,684.457642 321.913635,674.052490 
	C332.529449,668.269043 342.965271,662.100220 351.125519,652.936279 
	C355.285187,648.264954 357.912842,642.479126 361.420349,637.363831 
	C365.746246,631.054871 368.335388,624.040466 370.413605,617.014648 
	C372.839630,608.813110 373.460022,600.136536 373.650818,591.450012 
	C374.176453,567.519470 364.694855,547.492676 349.982574,529.551147 
	C344.935791,523.396606 338.422119,518.784180 331.392822,514.786621 
	C323.572113,510.339050 315.374695,506.940796 306.886566,504.239624 
	C296.815704,501.034851 286.529816,502.115448 276.247253,503.407623 
	C262.449524,505.141541 250.122162,510.476196 238.438461,517.782471 
	C230.803192,522.557129 225.523682,529.628662 219.047150,536.547119 
z"/>
<path fill="#000000" opacity="1.000000" stroke="none" 
	d="
M188.929214,533.213501 
	C192.172440,534.767273 194.894638,536.504272 198.456635,536.585938 
	C201.687729,536.660095 202.288956,539.513306 201.670273,542.153992 
	C201.225891,544.050720 200.541840,546.609985 199.126282,547.434875 
	C193.290588,550.835449 193.705627,556.989868 192.007233,562.168945 
	C190.957779,565.369141 189.907974,566.986511 186.002457,565.597290 
	C179.298752,563.212891 180.232635,569.362305 178.876297,572.726013 
	C177.417999,576.342590 178.746201,578.247803 182.639633,579.042847 
	C187.736267,580.083435 188.671432,582.219666 186.414948,586.758301 
	C185.547211,588.503601 185.346741,590.678589 183.320175,591.911133 
	C180.145065,591.685486 178.972031,588.614441 176.930328,586.868225 
	C171.762451,582.448364 165.349396,579.836670 160.469727,575.006653 
	C158.086578,572.647766 155.624512,570.554077 154.624069,567.154175 
	C153.281097,562.590210 154.631332,559.529785 159.001907,557.487610 
	C163.124573,555.561279 167.508942,554.387634 171.940201,553.943420 
	C176.282257,553.508118 180.189285,550.323914 185.028030,552.405701 
	C187.092499,553.293884 189.284286,551.065674 190.054230,549.132629 
	C190.773911,547.325806 190.001923,545.146057 188.112503,543.921997 
	C182.124420,540.042603 177.290924,534.110046 169.202820,533.983093 
	C166.254303,533.936768 165.256363,531.776978 166.710922,528.984070 
	C170.196762,522.290894 174.994156,517.484070 183.096130,516.920715 
	C187.983566,516.580872 192.840836,515.812134 197.914642,516.108154 
	C194.524338,512.405212 190.762390,509.687408 185.571350,510.588318 
	C181.834015,511.236969 181.077927,508.890411 182.133759,506.603119 
	C183.699265,503.211731 185.223663,499.564026 188.311768,497.102570 
	C190.098648,495.678253 192.899048,495.190338 193.035355,497.805023 
	C193.374695,504.313599 199.391739,504.919586 202.762589,508.124115 
	C205.578461,510.800995 209.409424,512.388855 212.698303,514.596802 
	C214.954712,516.111633 216.047516,518.307556 215.349976,521.074829 
	C214.728806,523.539185 213.121826,524.745605 210.602859,525.555176 
	C203.541473,527.824524 196.176880,527.542114 188.989868,528.658325 
	C188.025940,528.807983 187.098557,529.192932 186.179092,529.461670 
	C185.860718,531.623840 188.014420,531.749756 188.929214,533.213501 
M169.132675,567.518433 
	C165.916260,570.879517 169.972046,570.504578 171.058456,572.049683 
	C172.271484,568.393494 172.271484,568.393494 169.132675,567.518433 
z"/>
<path fill="#000000" opacity="1.000000" stroke="none" 
	d="
M250.127838,496.395447 
	C246.484375,495.403961 246.207245,493.559937 246.384583,490.045776 
	C246.808487,481.646576 245.737473,473.123627 241.447067,465.663055 
	C239.610565,462.469635 240.778717,461.464233 243.210480,460.469696 
	C245.045853,459.719116 246.997833,459.219543 248.932770,458.752716 
	C255.250595,457.228363 256.248169,458.193848 255.001450,464.355621 
	C254.547363,466.599823 255.556915,468.565430 256.544830,470.818573 
	C258.278259,470.712830 260.071777,470.710602 261.834686,470.477295 
	C269.362701,469.481171 270.337677,466.948425 265.711304,460.551849 
	C265.147552,459.772400 264.561096,459.009399 263.714569,457.876648 
	C267.969299,454.149353 272.956482,453.249390 278.011841,452.847015 
	C280.065735,452.683472 281.706146,454.231262 281.142792,456.397125 
	C279.071930,464.358673 283.755005,471.589203 283.436646,479.355408 
	C283.390991,480.468903 284.567139,481.697083 285.326477,482.766693 
	C287.469086,485.784698 286.558258,488.313538 282.857117,489.083160 
	C280.745850,489.522156 278.573700,489.665955 276.430511,489.954163 
	C271.547974,490.610718 271.021240,489.861450 271.443787,484.773010 
	C271.686066,481.854919 271.730194,478.248260 268.813599,476.725067 
	C265.747131,475.123596 261.849243,476.169830 259.255737,477.865814 
	C256.142395,479.901794 258.110962,483.460938 259.406036,486.000488 
	C262.794769,492.645508 262.683289,493.267914 255.406570,495.536285 
	C253.837418,496.025452 252.137238,496.094360 250.127838,496.395447 
z"/>
<path fill="#000000" opacity="1.000000" stroke="none" 
	d="
M162.562943,616.838257 
	C165.339630,613.339844 164.565598,609.390747 164.751068,605.654480 
	C164.988480,600.871765 165.725922,596.404053 169.720490,593.118835 
	C173.154617,590.294495 176.563828,590.130249 180.204880,592.722290 
	C187.307114,597.778442 191.053253,609.796082 188.139252,618.162109 
	C187.353043,620.419312 187.921280,623.014648 185.823593,624.989624 
	C184.053482,626.656189 182.392502,627.760254 180.134018,626.412781 
	C177.985092,625.130676 177.638092,623.117737 178.314270,620.769043 
	C179.232681,617.578979 181.503815,615.057922 182.161194,611.637329 
	C182.976212,607.396545 181.738342,604.958618 177.892776,603.538574 
	C175.051926,605.325073 176.925629,607.955750 176.432602,610.070435 
	C175.758591,612.961365 175.751816,616.000916 175.311081,618.954712 
	C174.518677,624.265259 171.075821,628.438049 167.052933,629.135620 
	C161.478836,630.102173 158.242874,626.333923 155.601410,622.646240 
	C151.193451,616.492432 150.945831,609.421509 152.587433,602.132324 
	C153.280991,599.052734 155.129822,597.623047 157.851700,596.825867 
	C159.462952,596.353943 160.778717,596.787476 161.812073,598.151367 
	C163.792679,600.765503 162.103149,602.835205 160.850784,604.977966 
	C157.833237,610.140930 158.185974,613.055481 162.562943,616.838257 
z"/>
<path fill="#000000" opacity="1.000000" stroke="none" 
	d="
M365.391327,519.700439 
	C369.854462,521.486816 374.826965,521.245972 379.256470,523.425598 
	C381.428986,524.494690 383.396698,523.130676 384.362671,520.744141 
	C385.732666,517.359497 387.384521,514.106323 388.002747,510.420502 
	C388.285339,508.735779 388.487732,506.709290 390.895660,505.477905 
	C395.244202,508.552948 397.514496,513.243469 399.360229,518.150696 
	C400.005798,519.867188 398.535034,520.622375 397.137726,521.478821 
	C394.477966,523.109009 393.004913,526.205811 394.596771,528.617249 
	C396.103546,530.899841 398.997375,530.106995 400.970886,527.805969 
	C402.377686,526.165649 403.872711,526.462524 405.112122,528.130127 
	C405.999390,529.323853 406.975433,530.486755 407.643555,531.799927 
	C408.605560,533.690796 410.007050,535.759583 408.365356,537.843872 
	C406.487885,540.227478 403.302734,539.184021 401.956482,538.158752 
	C398.821655,535.771179 395.333496,536.715210 392.009369,535.526367 
	C388.968201,540.117859 388.652191,545.398132 386.958374,550.179077 
	C386.246826,552.187317 386.246399,554.721436 383.474304,555.048279 
	C380.972778,555.343140 380.230469,553.241272 379.265686,551.463684 
	C378.475525,550.007751 377.520538,548.625977 376.515656,547.304810 
	C373.958130,543.942261 372.613983,541.183777 378.040283,538.950073 
	C380.593384,537.899109 381.728027,534.547180 380.013672,532.164429 
	C378.476685,530.028137 375.831055,530.987183 373.806915,532.542297 
	C370.373749,535.179993 367.998596,534.254456 366.580048,530.326477 
	C365.573059,527.538147 363.707794,525.021851 364.144379,521.241455 
	C364.739899,520.316589 365.065613,520.008484 365.391327,519.700439 
z"/>
<path fill="#000000" opacity="1.000000" stroke="none" 
	d="
M365.602234,519.426880 
	C365.065613,520.008484 364.739899,520.316589 364.161377,520.846497 
	C360.024292,521.430786 357.342865,518.632263 354.723022,516.742981 
	C349.215607,512.771423 344.123199,508.200958 338.455200,504.401672 
	C335.641449,502.515625 335.437866,499.991180 338.164551,498.424377 
	C345.768066,494.055237 348.484772,486.072754 352.793579,479.339630 
	C355.712219,474.778839 356.178528,474.311066 360.584015,477.590698 
	C365.899780,481.548035 371.317657,485.368073 376.640289,489.316437 
	C378.794891,490.914734 381.109375,492.586151 379.291382,495.843109 
	C378.578918,497.119568 378.130615,498.842773 376.349365,498.894531 
	C374.673859,498.943176 373.665131,497.674805 373.035461,496.245209 
	C371.178009,492.028137 367.625458,489.712128 363.879028,487.617920 
	C359.119476,492.210602 359.170471,493.015839 364.346130,496.037109 
	C365.488953,496.704224 366.679230,497.339020 367.922882,497.773407 
	C370.012115,498.503143 371.559204,499.724182 371.424011,502.044830 
	C371.282349,504.476410 369.407806,505.878906 367.404205,506.700104 
	C365.121704,507.635620 364.143463,505.465698 363.176544,504.076385 
	C362.317810,502.842651 361.636047,501.522095 360.315674,500.716125 
	C358.278595,499.472656 356.560913,496.332245 353.928436,500.338959 
	C351.992798,503.285034 349.469238,505.426422 354.474945,508.056854 
	C356.934723,509.349457 359.086182,511.250824 361.945953,511.688446 
	C368.019531,512.617859 368.529083,513.559631 365.602234,519.426880 
z"/>
<path fill="#000000" opacity="1.000000" stroke="none" 
	d="
M337.703918,679.581482 
	C341.621460,676.405396 346.222473,675.899048 350.446075,674.460815 
	C352.315643,673.824097 353.996826,674.832336 355.690399,675.541443 
	C357.817932,676.432312 359.114227,677.885925 358.248169,680.181641 
	C357.388458,682.460449 355.492371,683.798279 353.078156,682.622437 
	C347.897919,680.099304 343.831451,682.021301 339.885620,685.298401 
	C338.378723,686.549927 337.004181,687.759644 337.959839,689.877625 
	C339.081787,692.364075 341.206757,691.829407 343.110840,691.168579 
	C345.937531,690.187500 348.669373,688.936890 351.475311,687.891479 
	C356.730194,685.933594 362.241760,687.351685 364.835999,691.260010 
	C367.024658,694.557373 365.820618,701.631531 362.311157,705.091248 
	C358.366302,708.980225 353.691589,711.841553 348.590210,713.934937 
	C347.117096,714.539551 345.446625,715.040100 343.747314,714.278320 
	C340.985229,713.039978 340.087402,710.764221 340.922089,708.133789 
	C341.964447,704.848816 345.083527,705.276245 347.223236,706.155396 
	C350.889587,707.661743 353.268127,706.469116 355.379852,703.723206 
	C356.325348,702.493835 356.944580,701.116882 355.936218,699.590698 
	C354.889038,698.005920 353.460205,698.351501 351.929993,698.724243 
	C347.752289,699.741882 344.223602,702.463928 339.682800,702.733459 
	C334.898621,703.017395 331.761169,701.524841 329.822510,697.088745 
	C327.794708,692.448730 328.327423,688.279358 331.720459,684.631653 
	C333.403229,682.822632 335.505035,681.403442 337.703918,679.581482 
z"/>
<path fill="#000000" opacity="1.000000" stroke="none" 
	d="
M385.485779,651.426270 
	C390.233795,654.344543 392.959930,660.163025 399.750946,659.290710 
	C400.485352,662.782043 400.011719,665.453003 397.630646,668.705933 
	C394.037811,673.614319 390.554138,678.622192 386.843964,683.466370 
	C385.086823,685.760559 383.302612,687.556152 380.210052,686.075134 
	C378.978668,685.485535 378.041290,684.471130 377.912933,683.015076 
	C377.776093,681.463440 378.673248,680.506775 380.037231,680.005981 
	C385.048615,678.166077 387.164185,673.883362 389.202911,669.586487 
	C388.257172,667.569763 386.578156,666.868958 384.686859,666.024963 
	C382.209564,668.624817 379.668121,671.169250 378.166626,674.553711 
	C377.466064,676.132874 376.586426,677.672974 374.561096,677.394104 
	C372.773163,677.148010 371.625824,675.833557 371.034027,674.193481 
	C370.312988,672.195435 370.968842,670.384277 372.807892,669.515930 
	C376.003204,668.007080 377.923218,665.479553 379.685547,662.339050 
	C377.050690,660.105713 374.194244,657.014709 371.042236,658.651428 
	C367.501770,660.489868 364.692261,664.182190 364.569946,668.584595 
	C364.513611,670.610657 365.368073,672.568054 362.996033,673.635437 
	C361.101257,674.488159 359.193298,673.798401 358.042358,672.375977 
	C356.641266,670.644409 356.124329,668.328064 357.487701,666.298828 
	C360.532593,661.766846 363.857513,657.422485 366.885498,652.879822 
	C369.329895,649.212769 370.886230,644.812073 376.223145,642.808167 
	C377.361145,647.608276 381.753479,648.833435 385.485779,651.426270 
z"/>
<path fill="#000000" opacity="1.000000" stroke="none" 
	d="
M185.901230,626.886230 
	C187.699341,625.873840 189.538910,625.876343 190.274200,627.219360 
	C192.404190,631.109863 194.390274,635.127075 195.901657,639.287537 
	C196.616440,641.255249 194.363373,641.847473 192.785751,642.426147 
	C188.675964,643.933655 187.332855,646.137451 190.011200,650.347107 
	C193.837158,656.360474 193.640030,656.508606 200.355972,653.491760 
	C201.814774,652.836487 203.004410,653.270386 203.986542,654.261719 
	C205.774551,656.066406 207.225464,658.134155 207.043274,660.824951 
	C206.943756,662.294800 205.974091,663.239807 204.426682,663.363953 
	C196.331177,664.013245 188.243240,664.856018 180.134384,665.198120 
	C176.023056,665.371521 171.006134,666.251404 168.708908,661.553101 
	C165.967590,655.946594 169.104324,651.251587 172.521484,647.004456 
	C177.522751,640.788269 182.356659,634.482849 185.901230,626.886230 
M180.400986,656.109436 
	C181.591599,659.052490 183.690216,657.870605 185.288574,656.875122 
	C186.691162,656.001526 186.068192,654.246521 185.149658,653.417725 
	C182.168961,650.728394 181.869797,654.198303 180.400986,656.109436 
z"/>
<path fill="#000000" opacity="1.000000" stroke="none" 
	d="
M211.096100,677.595032 
	C208.689102,678.384949 206.355118,679.196960 204.247513,680.404236 
	C200.475647,682.564880 196.022110,683.963867 195.607315,689.622498 
	C195.399704,692.454651 193.047791,693.240112 190.335480,692.002808 
	C187.615753,690.761902 186.206390,688.165710 184.563736,685.981628 
	C183.327011,684.337402 184.604889,682.452332 186.328323,681.405640 
	C195.152863,676.046326 204.530838,671.803284 214.131088,668.082153 
	C217.613525,666.732239 219.865372,669.002808 221.202042,671.949829 
	C222.323746,674.422913 222.391357,677.102722 221.748047,679.786621 
	C219.664963,688.477173 217.471603,697.130005 214.253403,705.493835 
	C213.152649,708.354614 211.660233,709.220032 209.031601,707.212646 
	C207.449081,706.004089 205.714523,704.990417 204.164017,703.745056 
	C199.892059,700.313965 200.388397,698.185120 204.279282,694.413574 
	C208.795471,690.035828 210.052933,683.814575 211.096100,677.595032 
z"/>
<path fill="#000000" opacity="1.000000" stroke="none" 
	d="
M217.307434,494.667969 
	C215.832870,492.423981 214.583237,490.464783 213.292236,488.533203 
	C213.125916,488.284363 212.744888,488.178986 212.351196,487.938751 
	C209.845184,488.639435 210.350769,491.475494 208.945618,492.991119 
	C207.598816,494.443787 206.592209,496.493134 204.152420,495.754669 
	C201.794434,495.040955 200.914108,493.053711 200.659134,490.763397 
	C200.154984,486.234863 202.989975,483.250244 206.333984,481.562469 
	C212.734375,478.332092 218.120438,473.528229 224.611557,470.500916 
	C228.508911,468.683289 230.985184,469.429260 232.524124,473.211456 
	C234.013260,476.871338 232.939331,478.606720 228.932358,478.317383 
	C224.707245,478.012268 223.548172,479.229584 225.801987,483.037811 
	C229.134750,488.669159 231.068466,495.165710 236.612946,499.417389 
	C238.666168,500.991821 238.566071,503.529816 236.258713,504.847137 
	C233.361725,506.501129 230.723160,508.499359 227.907974,510.232788 
	C225.070374,511.980042 222.748016,510.942322 222.805542,507.559418 
	C222.892395,502.453979 219.784424,498.939728 217.307434,494.667969 
z"/>
<path fill="#000000" opacity="1.000000" stroke="none" 
	d="
M335.912109,471.687561 
	C333.822083,472.824738 333.468842,474.882477 333.382935,476.495178 
	C333.027283,483.172150 326.954987,488.293579 328.387390,495.400574 
	C328.465271,495.786835 328.124146,496.514923 327.778381,496.690399 
	C322.788574,499.221924 319.424316,494.950317 315.577911,493.358032 
	C312.678131,492.157654 313.647064,489.737152 315.551422,487.293243 
	C319.708130,481.958649 320.510803,475.093811 322.821533,468.916626 
	C323.940918,465.924286 321.866486,465.396393 319.493347,466.366089 
	C316.843750,467.448853 314.147644,468.178009 312.445435,465.267517 
	C310.764648,462.393616 313.195129,460.109711 314.746368,458.198242 
	C316.511139,456.023651 319.325714,455.221924 321.887939,457.000458 
	C328.005310,461.246765 335.422028,462.297058 341.981476,465.451019 
	C345.566711,467.174927 347.698792,471.179016 346.133301,474.768158 
	C344.862396,477.681915 342.657410,477.497955 340.452179,475.816254 
	C338.885620,474.621582 338.182007,472.513184 335.912109,471.687561 
z"/>
<path fill="#000000" opacity="1.000000" stroke="none" 
	d="
M397.000916,574.900146 
	C394.565369,576.078430 392.357086,576.928040 390.475006,578.244080 
	C388.404663,579.691711 386.945496,579.008728 385.858551,577.316528 
	C383.386383,573.467712 384.582062,568.947449 383.974396,564.754395 
	C383.758789,563.266785 385.551910,563.064941 387.027435,563.163757 
	C395.047699,563.701233 402.546265,560.630554 410.399872,560.159119 
	C410.884521,557.183838 409.243652,555.778748 407.630127,554.361389 
	C405.976227,552.908569 404.244659,551.432068 405.278076,548.895386 
	C405.833405,547.532227 407.116821,546.950195 408.540405,547.064453 
	C411.085602,547.268799 413.718689,547.669250 414.466034,550.650879 
	C415.875763,556.275208 417.093628,561.947937 418.374512,567.604309 
	C419.026825,570.484863 420.444031,573.129456 420.275635,576.281128 
	C420.121460,579.165955 418.761414,580.952576 416.490326,582.238953 
	C415.059570,583.049316 413.435852,583.877808 411.924652,582.364990 
	C410.667297,581.106262 410.830048,579.691650 411.778259,578.294373 
	C412.993439,576.503784 413.056946,574.597107 412.332397,572.338013 
	C407.082916,571.544312 402.305481,573.700806 397.000916,574.900146 
z"/>
<path fill="#000000" opacity="1.000000" stroke="none" 
	d="
M417.391052,621.812927 
	C414.929871,626.833557 415.219849,632.831848 410.502625,636.765198 
	C404.758057,629.446960 396.190277,629.049133 388.744110,626.256775 
	C386.434753,625.390808 385.141266,626.566040 385.113922,628.843872 
	C385.082092,631.492065 385.265778,634.155273 385.549896,636.790955 
	C385.785217,638.974243 386.309845,641.293518 384.216095,642.718323 
	C382.660889,643.776672 380.974060,642.654480 379.566589,641.829651 
	C377.291168,640.496094 376.454926,638.394958 377.202332,635.857544 
	C378.699615,630.774231 380.306488,625.723328 381.850067,620.653564 
	C382.670441,617.959229 383.342499,615.213806 384.290863,612.566406 
	C384.951813,610.721313 386.683685,608.691406 388.204010,610.955505 
	C392.671051,617.608093 400.151215,616.504272 406.311615,618.713745 
	C408.754425,619.589844 411.268585,620.175781 414.010498,618.807922 
	C416.072693,617.779114 417.495239,619.027954 417.391052,621.812927 
z"/>
<path fill="#000000" opacity="1.000000" stroke="none" 
	d="
M283.960083,725.662598 
	C282.821320,725.252014 281.803375,724.875183 281.246674,724.146179 
	C278.216339,720.178162 275.228271,719.347351 271.875122,723.802490 
	C270.980469,724.991089 269.621674,726.142212 268.040894,725.006104 
	C266.651337,724.007446 266.845734,722.336365 267.256897,720.865479 
	C267.566986,719.756226 268.022217,718.657166 268.594086,717.657227 
	C270.157349,714.923523 269.766418,712.648438 267.365753,710.583618 
	C265.558533,709.029175 264.409637,707.035034 264.060974,704.609741 
	C265.531647,702.588013 267.503387,702.707397 269.455078,703.259277 
	C272.742096,704.188782 274.097839,702.579285 274.581146,699.642212 
	C274.635040,699.314697 274.579285,698.950073 274.702209,698.656128 
	C275.527008,696.683716 274.957764,693.277832 278.111420,693.490295 
	C280.787445,693.670532 280.821930,696.753479 280.798126,698.738159 
	C280.742798,703.349609 282.312256,705.610901 287.234924,704.769043 
	C288.516479,704.549927 289.917755,704.886230 290.717407,706.359497 
	C290.773621,708.416382 289.397369,709.848755 287.758667,710.504089 
	C282.853699,712.465820 282.804138,715.999329 283.844635,720.304199 
	C284.244171,721.957214 285.518463,723.687866 283.960083,725.662598 
z"/>
<path fill="#000000" opacity="1.000000" stroke="none" 
	d="
M390.727844,604.666748 
	C387.603119,606.722351 385.919037,605.812927 385.680298,602.638245 
	C385.469452,599.834595 385.502960,596.966431 385.851105,594.179626 
	C386.213287,591.280518 387.273102,590.089722 390.904694,591.346191 
	C398.928345,594.122070 407.388763,594.739868 415.809235,593.334351 
	C418.957123,592.808960 419.917816,593.819824 419.530884,596.617737 
	C419.013947,600.356079 418.312866,604.068909 417.657928,607.989929 
	C408.622864,606.965576 400.101471,603.629883 390.727844,604.666748 
z"/>
<path fill="#000000" opacity="1.000000" stroke="none" 
	d="
M341.120239,592.617432 
	C343.761139,591.022095 344.391418,588.331604 344.810944,585.431580 
	C345.353943,581.677979 347.097412,579.284424 351.505310,579.959534 
	C355.582153,580.583923 357.928345,581.717773 357.664734,586.867371 
	C357.281952,594.344727 355.815399,601.708374 355.786102,609.197754 
	C355.775269,611.961853 354.117920,614.035583 351.563446,613.729187 
	C349.043762,613.426880 348.151184,610.912476 348.425110,608.343201 
	C348.731262,605.471802 350.070618,602.595703 348.394043,599.616638 
	C346.418365,601.291321 346.478546,603.440063 346.366547,605.619141 
	C346.105103,610.705933 344.129883,612.688965 339.898773,612.604126 
	C335.115631,612.508240 334.867035,609.625732 335.061249,605.802612 
	C335.253113,602.026001 334.675446,598.210266 333.591034,594.406494 
	C333.591034,598.310730 333.507355,602.217346 333.621124,606.118286 
	C333.694000,608.615906 333.721863,611.031677 330.466858,611.251038 
	C327.536377,611.448486 325.681915,610.114197 325.659424,606.904663 
	C325.602417,598.771179 325.445679,590.630798 327.065704,582.596985 
	C327.710175,579.400940 329.732239,578.226562 332.903351,578.643738 
	C335.993347,579.050171 339.575104,578.611755 340.118164,583.057922 
	C340.497406,586.162720 340.732391,589.285095 341.120239,592.617432 
z"/>
<path fill="#000000" opacity="1.000000" stroke="none" 
	d="
M231.051086,591.787109 
	C229.298004,591.142700 227.899582,590.605286 226.470688,590.167419 
	C219.302444,587.970825 217.224075,585.344910 218.414169,578.120911 
	C219.198303,573.361267 223.662491,571.612671 227.701187,571.189209 
	C232.935181,570.640381 238.245682,570.973938 241.891891,576.228394 
	C243.705261,578.841553 244.480652,581.068359 242.066071,583.190735 
	C239.752701,585.224121 237.109024,584.679626 234.892044,582.585571 
	C234.174026,581.907410 233.673355,580.981628 232.910843,580.372498 
	C231.999008,579.644165 230.904099,579.099121 229.682281,579.745483 
	C229.071579,580.068481 228.578705,580.563354 228.767502,581.335571 
	C229.063736,582.547363 229.736282,583.409424 231.061371,583.659424 
	C232.369049,583.906189 233.693054,584.132874 234.956467,584.535950 
	C239.856308,586.098938 243.441101,590.605591 242.781738,595.366577 
	C242.140427,599.997314 239.333282,602.847412 234.362473,603.898315 
	C225.170044,605.841675 220.625565,604.053345 217.735046,596.689514 
	C216.787292,594.274963 216.245346,591.855957 219.251740,590.922913 
	C221.562637,590.205811 224.388275,589.959839 225.300934,593.390076 
	C225.977951,595.934692 227.685684,596.821655 230.163239,596.632812 
	C231.502884,596.530701 232.985779,596.568298 233.427460,594.952209 
	C233.880249,593.295410 232.546555,592.627930 231.051086,591.787109 
z"/>
<path fill="#000000" opacity="1.000000" stroke="none" 
	d="
M321.930481,608.384521 
	C320.689453,610.982727 318.944122,612.100586 316.507751,611.204346 
	C312.524017,609.738892 308.259491,609.770630 304.228760,609.639709 
	C299.035553,609.471008 297.541077,606.815247 298.053009,602.771484 
	C299.011078,595.203979 300.194794,587.690369 299.931183,580.019836 
	C299.865875,578.118958 301.300507,576.976929 303.168549,576.840759 
	C309.310730,576.393066 315.421875,576.782410 321.405243,578.235535 
	C323.216583,578.675415 324.714233,580.145203 324.851624,582.119385 
	C325.006317,584.341980 323.102478,585.189148 321.369965,585.815063 
	C318.608795,586.812622 315.791565,586.293884 313.006134,585.794617 
	C310.715088,585.384033 308.743225,585.565857 307.779327,588.362366 
	C310.891388,591.070251 314.561981,589.199646 317.831299,589.714722 
	C321.375122,590.273010 322.555420,591.835510 321.837524,594.948547 
	C321.111237,598.098145 318.635803,598.736450 315.993591,597.627380 
	C313.813599,596.712219 311.799408,596.986023 309.685822,597.375061 
	C308.344604,597.622009 307.671967,598.597107 307.598053,599.834717 
	C307.508514,601.333252 308.646820,601.764465 309.892273,601.912292 
	C312.366791,602.205811 314.841309,602.667236 317.321381,602.706482 
	C320.968842,602.764160 322.542389,604.383301 321.930481,608.384521 
z"/>
<path fill="#000000" opacity="1.000000" stroke="none" 
	d="
M265.679504,578.364502 
	C265.256073,582.801697 265.946106,586.511963 268.246399,590.071533 
	C270.787384,594.003540 271.241882,598.770874 272.516632,603.189453 
	C273.070892,605.110474 271.748993,606.993774 269.821320,607.367371 
	C267.182983,607.878540 264.363129,607.657776 263.032776,604.687317 
	C262.116486,602.641418 261.225891,600.843140 258.778870,600.257629 
	C255.995544,599.591614 253.539825,599.297119 252.121109,602.587463 
	C250.641418,606.019165 247.837250,606.019043 245.034470,604.670227 
	C242.108734,603.262268 243.872437,601.121643 244.524536,599.131042 
	C246.852921,592.023315 250.453430,585.462158 253.219742,578.557861 
	C254.593613,575.128967 256.586243,573.381653 260.067993,573.167053 
	C263.432159,572.959717 264.476837,575.555603 265.679504,578.364502 
z"/>
<path fill="#000000" opacity="1.000000" stroke="none" 
	d="
M284.537659,585.315552 
	C284.047668,587.133606 283.600677,588.555481 283.251923,590.001099 
	C281.689178,596.479370 284.544952,600.141296 291.660004,600.669189 
	C294.198608,600.857605 296.974426,600.553833 296.600464,604.426025 
	C296.276764,607.777283 294.676117,609.466858 291.020386,609.068054 
	C286.754944,608.602783 282.445923,608.552612 278.166779,608.192017 
	C274.478729,607.881165 273.312286,605.270142 273.940460,602.190979 
	C275.309326,595.481323 274.461151,588.640747 275.562683,581.908020 
	C276.156738,578.276978 276.115479,574.528992 281.009064,574.730042 
	C284.685150,574.880981 285.970612,577.925354 284.999451,582.974182 
	C284.874084,583.626099 284.750366,584.278320 284.537659,585.315552 
z"/>
</svg>