<svg version="1.1" id="Layer_1" xmlns="http://www.w3.org/2000/svg" xmlns:xlink="http://www.w3.org/1999/xlink" x="0px" y="0px"
	 width="100%" viewBox="0 0 432 432" enable-background="new 0 0 432 432" xml:space="preserve">
<path fill="#000000" opacity="1.000000" stroke="none" 
	d="
M165.468658,433.000000 
	C152.892090,429.323425 141.997665,422.816650 130.368698,418.103973 
	C117.094780,412.724670 105.379654,404.900024 94.353813,396.272919 
	C86.095284,389.811035 77.596680,383.257965 70.802170,375.080414 
	C67.578644,371.200684 63.571339,368.393585 59.926456,365.092468 
	C56.084934,361.613281 53.668869,356.725647 50.190140,352.729523 
	C41.832691,343.129059 35.751930,332.110596 31.331387,320.153748 
	C30.606684,318.193542 29.043341,316.544159 27.872252,314.748077 
	C24.861683,310.130676 22.761017,305.214722 21.433844,299.781189 
	C19.711885,292.731354 17.616631,285.684357 14.784817,279.017212 
	C11.513799,271.316040 10.807982,263.147339 10.028936,255.169739 
	C9.068885,245.338623 8.771455,235.413544 9.354574,225.371979 
	C10.052931,213.345947 10.271049,201.269333 11.470737,189.253586 
	C12.435082,179.595001 13.944446,170.150482 17.447441,160.910217 
	C19.449194,155.629944 20.627232,149.934525 22.565010,144.503433 
	C26.560265,133.305756 32.756237,123.346840 38.908192,113.308517 
	C43.739372,105.425354 49.569462,98.245071 54.617744,90.573074 
	C57.696896,85.893608 61.524422,81.729675 64.166473,76.765793 
	C64.474083,76.187859 64.846603,75.424507 65.374069,75.216629 
	C72.939468,72.235062 75.942947,64.463066 81.784027,59.680397 
	C87.501083,54.999290 93.099625,50.191765 99.409645,46.265312 
	C103.053238,43.998066 105.086227,39.329937 109.404541,38.212173 
	C118.013336,35.983856 125.055428,30.590364 132.845840,26.820000 
	C144.523804,21.168165 156.617889,17.177208 169.016342,14.015756 
	C176.332870,12.150128 183.885757,11.095414 191.464203,10.137213 
	C203.847839,8.571454 216.276382,8.027389 228.510437,8.965775 
	C235.839523,9.527937 243.991882,7.908349 250.808182,12.597087 
	C250.942368,12.689391 251.139572,12.819761 251.261047,12.782267 
	C257.069641,10.989558 262.172577,12.971780 267.584229,14.963436 
	C269.484528,15.662802 271.925873,15.297520 273.617584,17.128670 
	C273.947845,17.486168 274.437836,18.043528 274.778503,17.993500 
	C285.179901,16.465925 292.676117,25.110361 302.409241,25.846792 
	C303.783386,25.950764 304.367737,26.958389 305.054718,27.889406 
	C306.291260,29.565187 307.518250,29.888405 309.918304,29.814575 
	C314.128784,29.685055 318.109802,32.398827 321.224457,35.037804 
	C329.701477,42.220158 339.042542,48.002239 348.476532,53.734718 
	C352.627747,56.257175 354.665741,61.069054 358.824615,63.783875 
	C369.804199,70.951042 376.692291,82.215683 385.864441,91.198761 
	C389.637451,94.893982 393.368927,99.201187 395.133118,103.580078 
	C397.192383,108.691475 401.727692,112.137283 403.067810,116.815620 
	C405.048492,123.730186 409.399658,129.341400 411.580627,135.867340 
	C413.317078,141.063187 412.674194,147.129974 415.198944,152.190750 
	C418.835815,159.480652 421.005920,167.300781 421.914703,175.128204 
	C422.840607,183.102783 425.741302,190.766861 425.406738,198.908493 
	C425.340363,200.523422 425.769012,202.232437 426.298889,203.785660 
	C428.972198,211.621872 427.281036,219.498993 426.857452,227.403610 
	C426.566071,232.840958 425.991547,238.248169 425.658844,243.655930 
	C425.198608,251.137619 422.939850,258.384491 423.253571,265.933716 
	C423.501678,271.903229 420.418793,277.138947 419.128723,282.785187 
	C416.988617,292.151611 414.514709,301.480164 410.485352,310.272003 
	C402.869415,326.889618 394.007507,342.741180 381.926727,356.623322 
	C380.414337,358.361267 379.351318,360.497955 378.131073,362.481232 
	C371.901093,372.607056 361.924774,378.993286 353.560760,386.972626 
	C345.619324,394.548889 336.365173,400.339661 326.614716,405.378662 
	C324.473816,406.485107 322.907593,408.648254 320.893188,410.063568 
	C305.141052,421.130859 287.023376,426.419983 268.740875,431.297546 
	C267.633362,431.593048 266.578674,432.086670 265.249695,432.744049 
	C231.979111,433.000000 198.958206,433.000000 165.468658,433.000000 
M344.876404,64.689835 
	C340.913849,62.492008 338.007263,58.890285 334.275482,56.465977 
	C320.519073,47.529240 306.276672,39.373230 290.965149,33.425396 
	C275.979401,27.604113 260.300812,23.352303 244.442932,21.734293 
	C232.534607,20.519260 220.404266,19.401878 208.218628,20.058479 
	C194.328674,20.806913 180.888260,23.522066 167.721588,27.466791 
	C149.864136,32.816860 133.118591,40.580940 117.377731,50.876472 
	C105.360512,58.736507 94.573013,67.837296 84.138840,77.525978 
	C82.433334,79.109634 81.322052,81.133965 79.569061,82.744720 
	C71.548851,90.114204 64.450928,98.518013 58.381626,107.393059 
	C50.719276,118.597595 43.497829,130.303879 39.251434,143.474945 
	C36.753899,151.221542 33.387791,158.720016 31.338999,166.571884 
	C28.301767,178.211899 25.682528,189.997513 23.659742,201.853271 
	C22.241169,210.167679 21.234251,218.741547 21.608555,227.129715 
	C22.220991,240.854507 21.370329,254.445175 25.807943,268.284210 
	C30.455379,282.777618 34.752426,297.458252 39.356422,312.023224 
	C40.919739,316.968842 45.179585,319.730774 46.687721,324.218079 
	C48.689068,330.172882 51.043129,335.473969 55.749485,340.136230 
	C60.495537,344.837799 63.769039,350.958099 68.223358,356.181763 
	C76.294197,365.646606 82.611534,376.581177 94.272461,382.521545 
	C98.375648,384.611816 101.316895,388.563080 105.173729,390.908508 
	C119.506027,399.624298 133.497864,408.968323 149.292297,415.102142 
	C161.970856,420.025909 174.642822,424.173706 188.447052,425.141235 
	C195.023880,425.602203 201.756210,424.791046 208.195572,426.420410 
	C212.094147,427.406921 215.853333,428.167236 219.913361,427.801727 
	C226.333832,427.223785 232.782974,426.786133 239.226135,426.686707 
	C246.307297,426.577454 253.063751,425.033051 259.723999,422.895386 
	C261.911835,422.193176 264.245636,419.957031 266.040253,420.388275 
	C271.597809,421.723816 276.089386,419.351349 280.917450,417.641418 
	C295.640381,412.427094 310.439728,407.335297 323.224365,398.044250 
	C329.204895,393.697906 336.237762,390.972198 341.185455,384.868622 
	C343.378967,382.162689 346.326935,379.500488 349.525879,377.269653 
	C357.720062,371.555389 365.904114,365.642090 371.156555,356.626312 
	C372.550293,354.234009 374.151367,350.903107 378.479004,351.606567 
	C377.982269,350.043304 378.308868,348.655457 378.892609,347.239227 
	C381.249664,341.520508 385.914001,337.320526 388.895752,331.934692 
	C390.520477,328.999939 393.295197,325.642212 394.145538,322.959900 
	C396.567322,315.320435 400.839722,308.608185 403.512451,301.105072 
	C409.325317,284.786621 414.256775,268.171265 416.282867,251.143753 
	C418.734406,230.540604 419.495667,209.622437 414.209900,189.117645 
	C413.410217,186.015366 413.796143,182.871536 413.157593,179.730118 
	C410.241394,165.383591 404.696167,151.885193 399.783417,138.224213 
	C394.951782,124.788765 386.495026,113.164009 379.174286,100.978424 
	C376.713531,96.882446 373.224457,93.982506 370.466614,90.342529 
	C363.241699,80.806679 354.616577,72.693863 344.876404,64.689835 
z"/>
<path fill="#000000" opacity="1.000000" stroke="none" 
	d="
M61.442459,343.388275 
	C59.224380,335.663361 53.237091,330.602020 49.978344,323.869568 
	C43.645859,310.786865 37.520535,297.670319 32.866043,283.842682 
	C29.846500,274.872131 27.909573,266.001678 27.480759,256.466644 
	C27.180296,249.785568 26.390921,242.991638 25.778200,236.259079 
	C24.403402,221.152863 27.083433,206.270691 28.530434,191.297134 
	C29.853683,177.604187 33.968639,164.734100 39.049274,152.254852 
	C45.534813,136.324844 53.055473,120.786446 63.408382,106.857506 
	C74.127876,92.435356 85.643013,78.408844 99.997650,67.769669 
	C114.390930,57.101856 128.853378,46.080334 146.476624,40.335480 
	C157.801254,36.643864 168.254669,30.273750 180.261948,28.523579 
	C198.776321,25.824936 217.405182,23.254971 236.101196,25.072241 
	C246.490280,26.082069 256.834503,28.106804 267.100769,30.737820 
	C280.165253,34.085964 292.246124,39.934692 305.095337,43.671253 
	C305.884979,43.900879 306.878174,44.100651 307.345184,44.668892 
	C313.974884,52.735489 325.918732,53.552818 331.814850,62.707119 
	C333.025940,64.587524 335.945282,64.440979 337.836273,65.995094 
	C348.702515,74.925613 359.349701,84.164825 368.224152,95.052734 
	C375.219452,103.635139 381.923889,112.590355 387.002502,122.547523 
	C391.271942,130.918167 396.834290,138.573593 399.744812,147.713791 
	C402.913971,157.666092 405.242218,167.809067 407.804352,177.903580 
	C409.497986,184.576355 411.556702,191.212723 412.513977,197.997726 
	C413.236115,203.115952 412.799072,208.501572 412.485565,213.663605 
	C412.082764,220.296280 414.425385,227.333771 410.432190,233.606110 
	C413.343903,237.894302 410.180023,242.178085 410.460754,246.339813 
	C411.034241,254.840881 407.993347,262.745453 407.556152,271.001984 
	C407.259094,276.611603 404.901703,281.637909 403.056183,286.651398 
	C397.288666,302.319031 391.011902,317.897369 381.631256,331.806152 
	C376.495361,339.421204 371.112518,346.907227 364.414948,353.537109 
	C361.087708,356.830658 357.837585,360.981049 355.014557,365.013367 
	C348.567749,374.221710 339.474365,380.487000 330.608734,386.565552 
	C316.055786,396.543518 300.454834,404.762054 283.859924,411.329071 
	C265.978180,418.405396 247.267776,420.100677 228.671707,422.964111 
	C223.408997,423.774475 218.082718,422.694702 212.803543,422.592346 
	C196.412018,422.274597 180.333633,419.705536 164.443787,415.037750 
	C156.927399,412.829712 149.228867,410.705841 141.927979,408.077637 
	C133.963287,405.210480 126.749596,400.023987 119.563881,395.307159 
	C114.690308,392.108032 110.030960,388.210510 105.175484,385.297729 
	C96.870934,380.315826 90.969948,372.941528 83.522346,367.294830 
	C74.762703,360.653412 69.499565,350.999634 61.442459,343.388275 
M276.359924,43.417110 
	C264.635468,38.850342 252.446152,36.593254 239.965622,35.069000 
	C225.449478,33.296127 211.093964,33.481331 196.632843,35.257950 
	C188.659653,36.237488 181.173950,38.958447 173.436646,40.676464 
	C163.027939,42.987656 153.262787,46.409443 143.795303,51.358501 
	C131.451614,57.811100 119.666443,65.021019 108.657166,73.515465 
	C104.851059,76.452141 102.175041,80.889481 98.311638,83.413559 
	C88.214203,90.010536 81.687981,99.999573 73.923637,108.616364 
	C68.523010,114.609917 65.131516,122.768867 60.659435,129.872772 
	C53.292385,141.575348 49.961300,155.132690 45.061298,167.938583 
	C39.184914,183.296188 38.373787,199.794281 35.729500,215.875061 
	C34.792675,221.572205 36.583580,227.229599 35.602295,232.730377 
	C34.086552,241.227173 34.987133,249.573349 36.986778,257.635559 
	C40.273907,270.888672 41.740528,284.637512 47.371082,297.287872 
	C50.499081,304.315643 52.698410,311.729340 56.308243,318.572418 
	C57.413284,320.667267 59.543591,321.736450 60.461178,324.077179 
	C63.140911,330.913086 67.498901,336.887238 71.899643,342.629120 
	C79.376999,352.385193 88.913223,360.311096 97.172058,369.394501 
	C99.198143,371.622894 101.245972,373.954498 103.869286,375.219482 
	C109.433029,377.902405 114.009430,381.958069 118.985329,385.428497 
	C124.160057,389.037598 129.246826,393.015350 135.151016,394.993591 
	C144.287735,398.054901 152.336761,403.485321 161.657806,406.122955 
	C168.961884,408.189850 176.241959,410.350250 183.712143,411.588257 
	C191.071167,412.807861 198.565216,413.191864 205.950012,414.281403 
	C218.385696,416.116119 230.834747,415.733398 243.082443,413.596985 
	C267.283722,409.375397 290.161896,400.984100 312.047699,389.878296 
	C316.178619,387.782074 321.281097,386.431427 324.114502,383.159821 
	C333.792389,371.985321 346.211365,363.903870 356.335785,353.205872 
	C364.385162,344.700500 371.468475,335.538422 377.319092,325.680328 
	C385.532318,311.841248 391.335907,296.705109 396.775299,281.528076 
	C400.447754,271.281128 400.487457,260.274658 403.095337,249.792557 
	C407.076233,233.791458 405.841736,217.582382 404.338287,201.485733 
	C403.344727,190.848267 401.337952,180.347382 398.035309,170.003052 
	C394.801971,159.875809 390.621368,150.124054 387.435638,140.022751 
	C385.378113,133.498764 380.573303,128.725510 377.724182,122.772987 
	C369.672028,105.950180 355.993774,93.688316 343.441559,80.540970 
	C336.973846,73.766624 328.557953,69.485474 321.049561,64.038063 
	C307.716919,54.365124 292.866241,48.099693 276.359924,43.417110 
z"/>
<path fill="#000000" opacity="1.000000" stroke="none" 
	d="
M321.780975,150.429199 
	C326.117096,157.964127 330.807098,164.922470 334.293182,172.439148 
	C337.043396,178.369141 339.228119,184.873596 340.022095,191.324966 
	C341.192139,200.832230 344.236603,210.138718 343.389679,219.896561 
	C341.817505,238.009903 341.220795,256.145691 333.023651,273.158447 
	C328.437592,282.676575 324.608612,292.543091 318.037140,300.891418 
	C309.237000,312.071014 299.228729,321.875824 287.669617,330.484222 
	C275.032104,339.895782 260.874603,345.070282 246.149704,348.714478 
	C227.481247,353.334656 208.551071,354.200958 189.556229,348.966766 
	C177.274643,345.582489 165.078369,342.436035 154.668320,334.619781 
	C140.249619,323.793671 125.264687,313.794098 116.227524,297.155212 
	C113.462082,292.063568 111.374710,286.737030 108.641869,281.716461 
	C104.576958,274.248596 101.917030,266.229309 99.935555,258.170013 
	C97.694237,249.053879 97.369255,239.515961 96.681435,230.075684 
	C95.601433,215.252411 98.385506,201.292389 102.244431,187.092361 
	C104.924583,177.229965 108.594986,167.763702 113.883591,159.550842 
	C119.593056,150.684387 125.629227,141.772064 133.148300,133.973434 
	C144.948013,121.734993 159.654144,113.940918 174.048096,105.729630 
	C179.809402,102.442993 187.081985,101.992767 193.420441,99.832947 
	C203.951950,96.244347 214.736145,97.014450 225.377777,96.109322 
	C236.316467,95.178925 246.689880,99.094086 257.199341,101.897888 
	C271.967804,105.837952 283.952087,114.883408 296.850647,122.204613 
	C301.308563,124.734932 305.130157,128.944916 308.257996,133.124390 
	C312.577759,138.896500 318.997284,143.017242 321.780975,150.429199 
M236.333954,341.697449 
	C241.940216,339.571960 247.970551,340.008575 253.825424,337.642456 
	C260.147003,335.087677 265.720001,331.493408 271.754333,328.637421 
	C278.065002,325.650665 283.367554,321.153320 289.253540,317.553253 
	C300.009552,310.974396 308.181885,301.735840 314.315155,291.118408 
	C318.404205,284.039642 323.034729,277.159424 326.063507,269.392090 
	C329.254517,261.208710 332.003265,252.830429 333.204651,244.270996 
	C334.601135,234.321365 335.132874,224.173294 334.792236,214.043533 
	C334.244110,197.742798 328.932343,182.643250 321.826508,168.388840 
	C316.312622,157.327988 308.913757,147.160385 300.341309,138.062576 
	C292.795990,130.054825 283.489258,124.240479 274.091644,118.872276 
	C267.705505,115.224289 260.100464,113.784790 253.352341,110.679924 
	C240.296646,104.672920 226.597626,105.576752 212.936539,106.338074 
	C204.657196,106.799469 196.651901,109.037643 188.621201,111.214912 
	C174.652603,115.002068 162.629730,122.278061 151.025650,130.510635 
	C144.298599,135.283203 139.675781,142.077255 134.178696,148.035202 
	C124.917114,158.073273 118.994186,170.051025 114.218544,182.629883 
	C112.535461,187.063019 112.794693,192.490967 110.363152,196.318787 
	C107.171661,201.342941 106.255379,206.847092 106.005577,212.051270 
	C105.431213,224.017151 104.726891,236.023529 107.136826,248.055328 
	C109.216003,258.435791 111.150017,268.694092 116.265480,278.103394 
	C117.895615,281.101837 119.820801,283.864655 120.808281,287.340393 
	C121.843010,290.982483 123.687714,295.080078 126.483887,297.415527 
	C137.637833,306.731628 146.262070,318.673309 159.077667,326.416840 
	C168.342697,332.015106 178.048111,336.495880 188.006729,339.758026 
	C203.361435,344.787781 219.444702,346.347412 236.333954,341.697449 
z"/>
<path fill="#000000" opacity="1.000000" stroke="none" 
	d="
M77.848587,200.445496 
	C76.610291,205.601715 80.476868,205.977463 83.359673,206.626740 
	C86.666359,207.371521 89.941566,208.159180 89.966888,212.065674 
	C89.994431,216.312698 87.358658,219.842010 84.944572,223.115509 
	C83.893936,224.540146 82.237511,222.946533 81.164223,221.916687 
	C75.043762,216.043915 67.981682,211.521271 61.037098,206.707962 
	C55.525089,202.887558 49.112309,198.793961 46.888855,191.261429 
	C45.063442,185.077377 47.324726,180.863480 53.299206,178.457047 
	C59.991402,175.761551 66.782433,174.065460 73.937843,173.522644 
	C75.007286,173.441513 76.299164,172.855652 77.001709,172.068909 
	C78.614258,170.263092 80.012680,170.144119 82.215271,171.216904 
	C85.948563,173.035217 92.692345,171.310257 93.641434,168.069214 
	C94.692680,164.479279 92.731354,161.819824 89.669930,159.334656 
	C84.600670,155.219620 78.458679,152.822098 73.570534,148.501236 
	C71.821907,146.955536 69.494698,147.405243 67.330780,147.350586 
	C62.113445,147.218842 61.253159,145.110336 63.367935,140.258301 
	C68.622375,128.202759 78.919548,125.306625 90.555679,124.724586 
	C95.164322,124.494064 99.794121,124.686745 104.584076,124.063835 
	C99.389191,120.044685 94.739395,114.991287 87.159431,116.712379 
	C85.830154,117.014214 84.503532,117.491180 83.567482,116.064949 
	C82.465820,114.386391 82.465546,112.454979 83.316719,110.803932 
	C85.052681,107.436584 86.942795,104.129837 89.026367,100.967430 
	C90.349586,98.959068 92.416542,97.549309 94.967026,98.024330 
	C97.712875,98.535744 97.689079,100.870171 97.869003,103.118179 
	C98.015533,104.948837 98.790985,106.659409 100.629120,107.558617 
	C106.082268,110.226273 110.456413,114.513916 115.650162,117.558067 
	C118.058273,118.969505 119.936874,121.009842 122.695107,122.128143 
	C125.700653,123.346703 127.228500,126.514328 126.627037,129.984039 
	C126.041779,133.360291 124.036308,135.381500 120.516541,136.370834 
	C111.232063,138.980576 101.641502,139.061356 92.191559,140.284393 
	C90.306976,140.528305 88.117714,140.171967 87.026199,142.683365 
	C92.338539,146.562393 97.193291,150.914536 104.454414,151.023880 
	C108.745987,151.088516 109.441002,154.902664 108.473999,158.047562 
	C107.087364,162.557144 105.703880,167.495438 100.396332,169.294632 
	C98.592400,169.906143 97.971367,171.206512 98.247665,172.738327 
	C99.170624,177.855331 96.082649,182.002289 95.058815,186.637405 
	C94.429924,189.484573 92.457695,191.004242 89.467590,189.362793 
	C87.603683,188.339569 85.644020,188.315659 83.663322,188.193100 
	C82.241524,188.105118 80.624962,188.426392 80.609032,190.034119 
	C80.573196,193.651398 78.070007,196.544815 77.848587,200.445496 
M69.950523,192.049088 
	C67.611275,191.122940 65.343536,190.582458 63.412788,193.183823 
	C64.867325,195.428375 66.491722,197.007797 69.444603,197.179352 
	C69.719864,195.522598 69.957779,194.090668 69.950523,192.049088 
z"/>
<path fill="#000000" opacity="1.000000" stroke="none" 
	d="
M309.408447,124.709686 
	C302.611023,119.091438 295.991425,113.847153 289.020874,109.043312 
	C284.357605,105.829582 284.637146,102.220695 289.803406,99.784523 
	C292.359985,98.578957 294.361450,96.854454 295.711823,94.604637 
	C299.973206,87.504967 305.705688,81.305305 308.668915,73.411552 
	C310.235657,69.237953 313.411896,70.619614 315.593903,72.143837 
	C323.723328,77.822563 331.675323,83.765915 339.516571,89.838921 
	C341.434021,91.323982 344.178711,93.099518 342.410614,96.394325 
	C341.365479,98.341957 341.161865,101.222549 338.181274,101.400108 
	C335.273346,101.573334 334.269409,99.214836 333.373718,97.048401 
	C331.393372,92.258316 327.111267,89.739861 323.149353,87.154091 
	C319.866241,85.011353 319.224670,89.050308 317.739044,90.655579 
	C316.164215,92.357224 316.011932,94.302444 318.414459,95.610489 
	C321.464966,97.271339 324.482269,99.030365 327.661652,100.405472 
	C330.237152,101.519394 332.136597,103.232758 331.824951,105.924454 
	C331.471375,108.978447 328.719513,110.680176 326.144379,111.721039 
	C323.204285,112.909401 322.349274,109.825378 320.903534,108.199608 
	C320.037140,107.225296 319.539612,105.902344 318.616638,105.002426 
	C312.825439,99.356018 308.594360,100.134109 305.175659,107.410645 
	C304.556915,108.727577 304.483948,110.267670 305.750092,111.048729 
	C310.309937,113.861588 313.959961,118.279510 319.953094,118.588394 
	C326.848969,118.943817 327.498047,120.156952 325.179749,126.856285 
	C325.017548,127.324989 324.883942,127.803581 324.724640,128.317596 
	C325.730072,130.569183 327.778809,130.533157 329.767242,130.676010 
	C333.255890,130.926636 336.596924,131.636688 339.846924,133.086197 
	C344.424469,135.127792 346.998108,134.111450 349.131439,129.628311 
	C351.352356,124.961075 353.059143,120.115158 354.034271,114.997276 
	C354.353577,113.321579 354.656281,111.015877 356.823151,110.640282 
	C359.149933,110.236984 360.312927,112.279343 361.377960,113.908806 
	C363.453766,117.084747 365.553589,120.274078 367.267670,123.648743 
	C368.803802,126.673050 369.435974,129.340805 364.814209,131.038223 
	C360.740173,132.534485 362.477966,137.403915 360.842224,140.360367 
	C366.352448,144.795609 369.791962,141.141403 372.994385,137.438965 
	C376.530426,139.523102 378.596771,142.244705 379.810730,145.588272 
	C380.687286,148.002563 382.571716,150.720261 380.053406,152.984940 
	C377.294708,155.465790 373.217255,154.333145 371.240021,152.809677 
	C367.823792,150.177475 363.892670,151.273239 360.480347,149.692291 
	C358.531219,148.789261 357.575134,150.588028 357.048859,152.317917 
	C355.223877,158.316788 353.330627,164.295670 351.584381,170.317261 
	C350.975433,172.417145 350.785645,174.721451 348.077789,175.180618 
	C345.296783,175.652222 343.950317,173.996231 342.689697,171.746353 
	C340.908356,168.567108 338.693207,165.632950 336.706940,162.565933 
	C334.563110,159.255585 334.904755,156.540390 338.866058,155.035095 
	C340.814270,154.294739 342.423187,153.540573 343.031281,151.237457 
	C343.678925,148.784515 344.941040,145.858246 342.727386,144.267746 
	C340.407898,142.601181 337.501953,143.366470 335.004547,145.403839 
	C330.874969,148.772705 327.651642,148.026245 325.594604,143.311813 
	C323.820404,139.245529 321.296234,135.343658 322.027466,130.212143 
	C316.667145,131.234772 313.957764,126.392845 309.408447,124.709686 
z"/>
<path fill="#000000" opacity="1.000000" stroke="none" 
	d="
M170.085388,97.416336 
	C167.415207,96.287247 166.485596,94.515450 166.962250,92.063019 
	C169.398804,79.527046 166.135788,68.023399 160.581421,56.956074 
	C159.379837,54.561852 159.607437,52.874100 162.192108,51.717842 
	C166.475830,49.801510 170.945511,48.399181 175.603653,48.137028 
	C180.100693,47.883953 181.480728,50.195023 179.435791,54.057968 
	C177.522461,57.672283 179.252808,60.819008 180.485733,64.027672 
	C180.920822,65.159988 182.017822,65.011856 183.062943,64.864845 
	C186.352478,64.402122 189.658966,64.058464 192.945969,63.579952 
	C195.860443,63.155666 196.940262,61.254223 196.254654,58.566563 
	C195.605682,56.022434 194.886398,53.518982 193.025482,51.383713 
	C189.988724,47.899242 190.773819,44.980762 195.386734,43.970383 
	C199.126633,43.151222 202.700134,41.807453 206.430527,41.069427 
	C211.059982,40.153534 213.136337,42.524296 212.458542,47.137745 
	C211.559219,53.259090 212.827560,59.247169 214.587875,65.076180 
	C215.130096,66.871696 215.616714,68.594849 215.370987,70.411621 
	C214.819504,74.488777 216.036942,77.840637 218.833252,80.855499 
	C221.311630,83.527603 219.935349,87.506050 216.304001,88.181648 
	C212.225891,88.940361 208.097885,89.582405 203.964386,89.841637 
	C200.924118,90.032295 198.575638,88.720070 200.006027,85.073143 
	C201.416748,81.476341 200.191483,78.153511 199.287827,74.852280 
	C198.687164,72.657883 196.898788,71.092445 194.380371,71.457458 
	C191.100296,71.932869 187.823380,72.555908 184.621277,73.403297 
	C182.090195,74.073105 182.013275,76.377556 182.536926,78.325768 
	C183.418991,81.607567 183.751526,85.041367 186.752151,87.624283 
	C188.676437,89.280685 189.300400,92.370438 186.367676,94.002388 
	C181.459793,96.733421 176.167603,98.393776 170.085388,97.416336 
z"/>
<path fill="#000000" opacity="1.000000" stroke="none" 
	d="
M56.334694,231.943329 
	C58.707867,235.922028 56.147770,238.495026 54.487144,241.299530 
	C51.008030,247.175156 51.647224,251.971649 56.980808,257.558075 
	C60.798267,252.517563 60.283657,246.652527 60.561451,241.118103 
	C60.842110,235.526596 61.255932,230.194519 65.704384,226.063736 
	C70.277397,221.817245 75.032181,221.208374 80.131424,224.885803 
	C88.106247,230.637024 91.482468,238.780197 91.898209,248.431152 
	C92.183563,255.055420 91.611275,261.377289 87.746193,267.070679 
	C85.599831,270.232361 82.670860,270.296021 79.898788,268.782471 
	C77.242226,267.332001 77.095055,264.461395 77.891541,261.714539 
	C79.224289,257.118256 82.808525,253.501419 83.328995,248.458542 
	C83.622833,245.611588 83.398949,243.143677 81.657867,240.969391 
	C80.453415,239.465271 78.731491,238.637207 76.770340,239.388702 
	C74.932304,240.093048 75.620972,241.840500 75.378487,243.261841 
	C73.932007,251.740265 76.079948,260.960358 69.673927,268.427399 
	C65.400414,273.408661 58.279530,273.476349 53.240337,269.189178 
	C42.295399,259.877625 42.155895,248.140427 44.768112,235.660950 
	C45.830147,230.587234 51.485481,228.748856 56.334694,231.943329 
z"/>
<path fill="#000000" opacity="1.000000" stroke="none" 
	d="
M320.022339,371.901184 
	C313.880920,377.670380 307.392365,382.137695 299.445404,384.162140 
	C296.602844,384.886261 294.130554,384.470703 292.439056,381.913788 
	C290.995880,379.732208 290.157166,377.256897 291.901154,374.925140 
	C294.282349,371.741394 297.917297,372.306305 300.537994,373.777740 
	C305.219177,376.406158 307.634186,373.402771 310.343567,370.861572 
	C312.256958,369.066986 312.503693,366.547150 311.260773,364.412720 
	C309.942596,362.149017 307.771179,363.494324 305.863739,363.917969 
	C302.728516,364.614227 300.030792,366.316071 297.104950,367.481476 
	C290.657349,370.049683 281.661804,369.852295 278.604614,364.711914 
	C274.145721,357.214752 274.788055,349.514343 281.099060,343.480499 
	C287.812469,337.061951 295.994049,333.689789 304.934021,331.941498 
	C308.319794,331.279358 311.116211,332.971527 313.532837,335.062592 
	C314.795502,336.155151 315.529358,337.818970 314.543671,339.575714 
	C313.541565,341.361664 312.295441,342.992462 309.987488,342.948547 
	C308.845184,342.926819 307.686432,342.609314 306.575470,342.286713 
	C299.012451,340.090454 292.633484,342.095459 288.116028,348.035187 
	C286.940582,349.580688 286.965088,351.333649 287.704529,352.742889 
	C288.783081,354.798462 291.038513,354.955353 292.991089,354.317535 
	C297.253296,352.925293 301.503540,351.437439 305.615753,349.658325 
	C312.089661,346.857391 317.852295,347.933960 322.254700,353.186371 
	C326.538208,358.296875 323.779236,363.872864 321.932800,369.164093 
	C321.616119,370.071625 320.845673,370.820801 320.022339,371.901184 
z"/>
<path fill="#000000" opacity="1.000000" stroke="none" 
	d="
M68.790337,297.921875 
	C75.548759,289.145264 82.740379,281.098816 86.874367,270.990112 
	C88.077835,268.047302 92.277489,267.536377 94.079834,270.568481 
	C96.829079,275.193604 98.886803,280.252594 100.972710,285.238403 
	C101.856163,287.350067 100.423218,288.672455 98.378326,289.229950 
	C88.433617,291.941223 90.452759,296.179962 94.711433,302.613678 
	C95.974541,304.521881 97.635536,306.170441 98.427422,308.573120 
	C101.336075,308.441406 104.038712,308.379059 105.905022,305.587006 
	C107.470856,303.244415 109.470932,303.591248 111.418015,305.271729 
	C113.936867,307.445709 115.179321,310.342896 115.648102,313.501282 
	C115.933205,315.422150 115.229065,317.489624 112.876663,317.426666 
	C100.312088,317.090454 88.000328,320.471771 75.465942,320.010681 
	C63.543598,319.572144 61.983845,312.172241 65.734200,303.443512 
	C66.515388,301.625397 67.596382,299.936035 68.790337,297.921875 
M87.631538,306.695465 
	C87.360130,304.837433 86.774597,302.484863 84.689949,302.891083 
	C81.564896,303.500000 81.576607,306.973236 79.856201,309.583405 
	C83.144661,309.798370 85.992027,310.850464 87.631538,306.695465 
z"/>
<path fill="#000000" opacity="1.000000" stroke="none" 
	d="
M349.362854,335.393127 
	C350.637085,333.619812 351.802094,332.197937 352.736633,330.637970 
	C356.392303,324.535797 356.139832,323.914673 348.855194,320.724976 
	C345.735992,324.244934 342.323700,327.634827 340.425049,332.150299 
	C339.535278,334.266327 338.433167,336.308105 335.866394,335.967621 
	C333.111359,335.602112 331.641693,333.380768 330.979858,330.859833 
	C330.287384,328.222137 331.568604,325.905731 333.913544,325.185974 
	C337.657196,324.036896 339.450623,321.150787 341.558350,318.389801 
	C342.204590,317.543213 342.659332,316.737823 342.348236,315.663757 
	C341.387939,312.348511 331.217194,309.354492 329.276093,312.087952 
	C326.168030,316.464783 320.830383,319.993073 323.059570,326.852753 
	C323.767700,329.031738 321.810120,330.749481 319.708008,331.037720 
	C317.225494,331.378113 314.612335,331.032013 313.538452,328.109772 
	C312.391876,324.989746 312.198029,321.934845 314.548553,319.166504 
	C320.212677,312.495667 324.612457,304.953308 329.360168,297.649750 
	C330.075378,296.549561 330.880035,295.461426 331.832092,294.569061 
	C336.626099,290.075470 336.580505,290.151764 340.575409,295.262634 
	C341.819946,296.854828 343.004852,298.272430 345.513885,298.897125 
	C349.854889,299.977936 352.865570,303.759216 356.097839,306.741058 
	C358.453461,308.914124 361.259155,310.371246 363.606415,312.479370 
	C365.425903,314.113525 366.849884,311.806030 368.871094,311.487976 
	C369.407257,316.531738 369.957855,320.816101 365.372253,324.273743 
	C363.569366,325.633148 362.792450,328.460388 361.762634,330.716949 
	C359.096008,336.560028 353.591492,340.171570 350.283508,345.591461 
	C348.526215,348.470703 344.972565,348.922913 342.007172,346.211731 
	C339.243103,343.684631 339.698212,340.644745 343.208588,339.251343 
	C345.421600,338.372955 347.396820,337.253052 349.362854,335.393127 
z"/>
<path fill="#000000" opacity="1.000000" stroke="none" 
	d="
M132.450974,347.214111 
	C131.453705,353.993195 130.406937,360.375305 126.830765,365.999634 
	C125.631371,367.885925 125.616379,370.095520 125.187088,372.210754 
	C124.357056,376.300568 121.768456,377.197693 118.317490,374.820068 
	C115.856171,373.124268 113.197205,371.663116 110.945450,369.726349 
	C106.345253,365.769562 106.934631,361.042603 112.222008,358.602509 
	C113.601044,357.966125 114.076157,356.925140 114.688728,355.711761 
	C117.385529,350.369843 119.207825,344.700958 121.151245,339.073547 
	C121.594086,337.791229 121.955818,336.533661 120.652824,335.004242 
	C116.155128,339.214417 109.802940,339.961151 104.877632,343.788879 
	C102.544746,345.601929 100.942047,347.185913 100.666740,349.942169 
	C100.406219,352.550537 100.062874,355.081177 97.023842,355.701324 
	C93.991028,356.320190 92.021683,354.125092 90.312355,352.194275 
	C89.267960,351.014587 88.634636,349.541565 87.311348,348.407104 
	C84.757263,346.217468 85.344208,342.681183 88.387230,341.025726 
	C99.737137,334.851257 111.199348,328.897797 123.289917,324.266266 
	C129.233032,321.989624 132.731354,323.794067 134.540924,329.950806 
	C135.757828,334.091003 135.670151,338.163757 133.774628,342.080627 
	C133.034119,343.610779 132.528015,345.152435 132.450974,347.214111 
z"/>
<path fill="#000000" opacity="1.000000" stroke="none" 
	d="
M149.766235,70.244461 
	C149.838562,75.022949 146.833084,74.849892 143.918884,74.250641 
	C141.927048,73.841064 140.174988,73.868820 138.947128,75.489502 
	C137.663879,77.183304 139.306458,78.513245 139.870728,80.015907 
	C142.280533,86.433220 146.949600,91.589821 149.666031,97.821457 
	C150.527390,99.797440 152.301620,100.663643 153.943924,101.820290 
	C156.953659,103.940025 156.815552,107.762726 153.601593,109.535599 
	C150.103882,111.464996 146.582764,113.240097 143.628433,116.043526 
	C142.302292,117.301926 140.315353,117.818794 138.496262,116.811073 
	C136.715546,115.824631 135.988083,114.189690 136.510391,112.150932 
	C137.712952,107.456787 134.227081,104.308632 132.336395,100.877792 
	C129.552124,95.825432 126.622612,90.678299 122.165108,85.961021 
	C120.380669,89.233139 119.085762,91.868004 117.544350,94.349754 
	C116.361671,96.253914 114.692841,97.673515 112.175323,97.227669 
	C109.484276,96.751091 108.380669,94.722618 107.731689,92.386650 
	C106.320709,87.307831 108.775948,81.651169 115.141251,78.637512 
	C122.992111,74.920517 129.378922,69.022003 137.160095,65.224373 
	C144.529694,61.627621 147.003311,62.206799 149.766235,70.244461 
z"/>
<path fill="#000000" opacity="1.000000" stroke="none" 
	d="
M257.344421,93.517441 
	C255.384201,91.497871 255.255142,89.286324 256.974976,87.933670 
	C261.826813,84.117661 262.243622,78.182266 264.526367,73.167633 
	C265.962433,70.012878 266.811676,66.585899 267.852020,63.258495 
	C268.282379,61.882027 269.237793,60.354603 267.862732,59.060020 
	C266.453918,57.733650 264.751465,58.261627 263.158356,58.804939 
	C262.062408,59.178696 261.026306,59.910053 259.916870,60.022770 
	C257.859192,60.231819 255.912292,59.661434 254.629791,57.872349 
	C253.441177,56.214249 253.667786,54.488670 254.518723,52.690598 
	C258.247772,44.810974 261.996857,43.887188 269.599457,48.900040 
	C273.929749,51.755238 279.180542,52.320309 283.853271,54.368633 
	C287.471619,55.954758 291.248962,57.173908 294.908234,58.672005 
	C298.253662,60.041615 300.280060,68.791077 297.641296,71.118301 
	C294.989105,73.457375 292.302124,72.209373 290.155701,70.052368 
	C288.441376,68.329582 287.022308,66.312958 285.340424,64.266426 
	C281.861572,66.549644 282.073029,70.014534 281.293884,72.874542 
	C280.123535,77.170486 279.696136,81.597557 276.769073,85.361023 
	C274.892822,87.773376 275.246918,91.021370 275.275360,94.048988 
	C275.330536,99.920677 272.646912,101.457314 267.478668,98.397224 
	C264.323883,96.529282 260.442657,96.304787 257.344421,93.517441 
z"/>
<path fill="#000000" opacity="1.000000" stroke="none" 
	d="
M382.545563,178.281219 
	C381.353790,176.698166 380.386230,175.335464 379.198822,174.203384 
	C377.238007,172.333878 375.054352,170.573944 376.225372,167.450073 
	C376.943726,165.533875 378.630188,164.646927 380.622223,164.830887 
	C383.775635,165.122086 387.168427,165.315292 388.272461,169.140503 
	C389.098602,172.002869 389.862213,174.923416 390.225616,177.870850 
	C390.979614,183.986771 392.631104,189.842545 394.720886,195.601532 
	C397.293762,202.691772 395.369049,208.885635 389.781036,211.384506 
	C388.112427,212.130676 386.373962,213.132889 384.830658,211.194717 
	C383.561737,209.601135 383.389435,207.890274 384.537201,206.117859 
	C385.078278,205.282349 385.701324,204.467392 386.063873,203.554428 
	C387.560181,199.786469 385.813507,196.839859 381.927551,197.525589 
	C373.011719,199.098953 363.753723,199.957733 356.275970,205.964844 
	C353.500092,208.194794 351.797455,206.201950 350.703094,204.261368 
	C347.914124,199.315918 348.722504,193.608978 348.032593,188.234726 
	C347.772858,186.211166 349.879883,185.537003 351.658905,185.931122 
	C358.396057,187.423599 364.676270,184.166885 371.303619,184.128754 
	C374.122009,184.112549 377.001617,182.600693 380.041626,182.489014 
	C382.429779,182.401276 383.885498,181.313019 382.545563,178.281219 
z"/>
<path fill="#000000" opacity="1.000000" stroke="none" 
	d="
M365.896545,272.122864 
	C362.203217,270.947052 358.891663,269.846313 355.531036,268.924652 
	C350.965088,267.672516 349.443512,268.768677 349.318359,273.573517 
	C349.227783,277.050415 349.409821,280.511505 350.054413,283.988800 
	C350.507477,286.433105 351.109467,289.612518 347.533295,290.641785 
	C344.821503,291.422180 340.144409,288.041382 339.752563,285.043518 
	C339.542114,283.433441 339.596802,281.662354 340.046173,280.113098 
	C342.810516,270.582031 345.699615,261.086792 348.604187,251.597076 
	C349.128418,249.884293 349.583527,247.933212 351.937347,247.779236 
	C354.021423,247.642914 354.786011,249.189743 355.481079,250.734787 
	C356.363464,252.696259 357.816193,253.822067 359.921143,254.360703 
	C367.302277,256.249390 374.648590,258.274017 382.029968,260.161743 
	C383.899811,260.639984 385.577209,259.820007 387.234985,258.933777 
	C388.647217,258.178772 390.270294,258.244354 391.415344,259.409760 
	C392.565643,260.580475 392.357056,262.126617 391.844482,263.626801 
	C390.293640,268.165802 388.718597,272.698547 387.290649,277.276672 
	C386.647980,279.337097 385.512726,281.012421 383.547089,281.631989 
	C381.420074,282.302399 380.866791,280.109650 379.951569,278.851715 
	C378.161377,276.391052 375.542328,275.440918 372.823364,274.566833 
	C370.617157,273.857574 368.444214,273.044708 365.896545,272.122864 
z"/>
<path fill="#000000" opacity="1.000000" stroke="none" 
	d="
M193.665588,378.118042 
	C192.899170,376.994690 192.288696,376.186432 191.879303,375.286682 
	C189.951096,371.049011 190.942245,369.588928 195.711227,369.546478 
	C203.268143,369.479187 203.261658,369.477661 204.910645,362.444763 
	C205.099579,361.638947 205.388428,360.853790 205.669159,360.072784 
	C206.272903,358.393127 206.550354,356.153198 209.019333,356.510406 
	C211.349686,356.847534 212.112427,358.773254 212.243759,360.940247 
	C212.384369,363.259857 212.421738,365.590179 212.671906,367.897614 
	C212.999466,370.918610 214.120117,372.796722 217.825348,371.940155 
	C220.533600,371.314117 223.453720,371.202057 225.802887,373.534943 
	C225.634430,376.145447 224.102524,377.990723 222.056503,379.067688 
	C213.033585,383.817017 215.840591,384.709351 216.646820,393.230865 
	C216.738205,394.196808 217.243347,395.128113 217.586426,396.064545 
	C217.994476,397.178467 218.500916,398.383118 217.265793,399.210968 
	C216.095566,399.995361 215.044083,399.299988 214.147598,398.482330 
	C211.827484,396.366150 209.523468,394.232269 206.896027,391.813660 
	C204.505402,392.732269 202.718735,395.138580 200.630859,397.176544 
	C199.558441,398.223358 198.342850,399.368652 196.705826,398.797272 
	C194.757523,398.117249 194.865616,396.262909 194.781296,394.598755 
	C194.694138,392.878296 195.068436,391.183105 196.034515,389.845184 
	C199.379303,385.212830 198.150330,381.554443 193.665588,378.118042 
z"/>
<path fill="#000000" opacity="1.000000" stroke="none" 
	d="
M350.708130,233.549286 
	C350.694000,231.452820 350.626556,229.790665 350.670044,228.131409 
	C350.831451,221.969086 352.484650,221.583221 358.033478,223.441772 
	C365.520477,225.949524 373.570496,226.407928 381.489594,226.553268 
	C384.689178,226.612000 387.936249,227.138260 391.214478,225.465439 
	C393.746826,224.173233 395.354370,226.333420 394.947449,228.927734 
	C394.231262,233.493927 393.028168,237.966660 393.218384,242.669647 
	C393.310638,244.949997 391.679657,245.436081 389.779663,244.760956 
	C380.679169,241.527359 371.056000,241.247772 361.657471,239.698792 
	C359.986511,239.423416 358.442657,239.326080 356.839020,240.160797 
	C351.640747,242.866592 350.351624,241.970367 350.604004,235.975006 
	C350.631927,235.311386 350.671539,234.648270 350.708130,233.549286 
z"/>
<path fill="#000000" opacity="1.000000" stroke="none" 
	d="
M313.263611,213.353180 
	C314.136536,224.998199 311.012146,235.913940 311.033569,247.062561 
	C311.040527,250.689774 308.427704,252.612854 304.862885,252.439362 
	C298.338348,246.836105 304.728424,239.575485 302.013214,233.255081 
	C298.783264,235.263870 299.372833,238.384415 299.142761,241.212280 
	C298.547638,248.528183 294.554291,251.868271 288.164154,250.547119 
	C285.418732,249.979523 283.764557,248.186691 284.190094,245.678543 
	C285.247864,239.444107 281.803650,233.630615 283.357239,227.434647 
	C282.872131,227.433426 282.387024,227.432190 281.901917,227.430954 
	C281.901917,232.624237 281.881042,237.817627 281.910004,243.010727 
	C281.926514,245.976624 281.824341,249.072586 277.903168,249.132401 
	C274.593903,249.182892 271.620758,248.318741 271.650513,243.861526 
	C271.719849,233.477341 271.765076,223.092484 273.235962,212.791260 
	C273.756073,209.148483 275.088501,205.929337 279.699890,206.007278 
	C287.548767,206.139938 289.150513,207.603485 290.617279,213.039474 
	C291.778137,217.341858 289.974060,221.993958 292.478271,225.984131 
	C294.856995,221.930008 296.718079,217.788971 297.258026,213.045746 
	C297.612549,209.931259 300.027527,207.393127 303.041290,208.014984 
	C306.661896,208.762039 311.697174,207.526550 313.263611,213.353180 
z"/>
<path fill="#000000" opacity="1.000000" stroke="none" 
	d="
M159.200623,200.630859 
	C160.059265,201.692291 160.610703,202.547989 161.329620,203.226120 
	C164.251572,205.982193 164.669937,209.270782 161.874603,211.916046 
	C158.942078,214.691193 155.323227,213.968292 152.469467,211.292603 
	C151.144730,210.050552 150.057587,208.577042 148.358536,207.785492 
	C146.665222,206.996628 144.773895,206.871246 144.173340,208.824615 
	C143.687546,210.404724 144.575897,212.079346 146.559753,212.607162 
	C149.710052,213.445343 152.854431,213.944046 155.898224,215.544098 
	C161.299866,218.383621 162.693588,223.051529 162.782745,228.295410 
	C162.853546,232.459030 157.569168,237.608978 152.894470,238.753891 
	C150.640640,239.305893 148.388947,240.029663 146.096924,240.234039 
	C137.157318,241.031097 130.646454,235.988739 129.002792,227.315170 
	C128.453995,224.419113 129.918777,222.532898 132.320236,222.089828 
	C134.857559,221.621689 138.019180,220.785538 139.345917,224.661911 
	C140.978043,229.430695 143.679306,230.776611 148.456894,229.643982 
	C149.908432,229.299866 150.889740,228.562119 151.173538,227.105362 
	C151.506561,225.396042 150.285934,224.701569 148.986115,224.267181 
	C145.068970,222.958145 141.188324,221.440094 137.171371,220.562134 
	C134.141068,219.899811 132.718460,218.303192 131.697205,215.555710 
	C126.918518,202.699661 136.159363,195.221024 147.625397,196.597748 
	C151.704620,197.087555 156.040359,196.494537 159.200623,200.630859 
z"/>
<path fill="#000000" opacity="1.000000" stroke="none" 
	d="
M255.014526,220.569000 
	C257.541199,221.038864 259.861389,220.760864 262.004944,220.869461 
	C267.824066,221.164261 266.342133,224.967148 266.210114,227.863251 
	C266.024963,231.924011 262.828033,231.882950 259.916962,231.282867 
	C256.986755,230.678848 254.126968,230.208694 251.098297,230.472748 
	C248.997574,230.655899 248.005280,231.732727 247.783524,233.496124 
	C247.528748,235.522141 248.915848,236.544617 250.758148,236.772644 
	C254.380615,237.221054 258.022156,237.512878 261.649292,237.926453 
	C265.622437,238.379486 267.901428,241.108109 266.859161,244.713409 
	C265.947723,247.866302 263.890381,249.543823 260.095795,248.878906 
	C253.764862,247.769547 247.425522,246.505692 240.923340,246.721069 
	C237.955353,246.819397 236.118408,245.120850 235.945404,242.265305 
	C235.715424,238.468872 235.073853,234.390045 236.125732,230.888062 
	C238.237488,223.857452 237.953186,216.826172 237.679398,209.748978 
	C237.513351,205.456619 239.247986,203.529114 243.475601,203.685043 
	C250.331894,203.937943 257.209930,203.836838 264.003052,205.057205 
	C267.376526,205.663223 270.569214,207.278717 270.399414,210.828888 
	C270.215912,214.665268 266.624817,216.064072 263.138336,216.251968 
	C260.367310,216.401321 257.450256,216.703918 254.808136,215.452271 
	C253.457031,214.812225 252.225006,215.169830 250.921356,215.322739 
	C249.182495,215.526688 248.063599,216.507645 248.041687,218.202271 
	C248.015991,220.190002 249.568359,220.517715 251.189850,220.527908 
	C252.352692,220.535233 253.515564,220.539017 255.014526,220.569000 
z"/>
<path fill="#000000" opacity="1.000000" stroke="none" 
	d="
M178.696518,201.565155 
	C181.929611,199.193710 185.107147,198.082062 188.568054,200.019196 
	C192.026611,201.955017 192.932983,205.152023 192.440399,208.854782 
	C191.606873,215.120224 195.718857,219.784210 197.841354,225.034363 
	C199.495422,229.125870 200.062897,233.347214 200.933823,237.547867 
	C201.508698,240.320663 201.285736,243.475510 197.987503,243.937332 
	C194.937103,244.364441 191.122055,244.620636 189.591385,240.572372 
	C188.413452,237.457001 186.833633,235.110397 183.213943,234.325302 
	C179.364410,233.490372 176.384842,233.706055 174.586334,237.808945 
	C173.023651,241.373840 170.158691,241.888916 166.679138,240.715317 
	C164.117035,239.851166 163.251175,238.270889 164.122528,235.739975 
	C168.122421,224.121933 173.188232,212.954895 178.696518,201.565155 
z"/>
<path fill="#000000" opacity="1.000000" stroke="none" 
	d="
M218.782272,204.633026 
	C218.679810,209.638611 218.010712,214.225433 216.560211,218.661682 
	C215.774094,221.065948 215.495804,223.401474 215.878326,225.979935 
	C217.197449,234.871948 218.010361,235.687363 227.290497,235.355408 
	C230.552673,235.238724 233.650314,235.135284 233.066391,239.768280 
	C232.623734,243.280380 232.512787,246.716568 226.924286,245.803085 
	C221.431122,244.905136 215.727875,245.304733 210.117859,245.105606 
	C205.277603,244.933807 203.002106,242.561691 203.873672,237.740417 
	C205.449158,229.025284 204.808624,220.202179 205.574692,211.444260 
	C206.534180,200.475006 209.183060,198.718445 218.782272,204.633026 
z"/>
</svg>